<?xml version="1.0" encoding="utf-8"?>
<!-- Generator: Adobe Illustrator 16.0.0, SVG Export Plug-In . SVG Version: 6.00 Build 0)  -->
<!DOCTYPE svg PUBLIC "-//W3C//DTD SVG 1.1//EN" "http://www.w3.org/Graphics/SVG/1.1/DTD/svg11.dtd">
<svg version="1.1" id="Capa_1" xmlns="http://www.w3.org/2000/svg" xmlns:xlink="http://www.w3.org/1999/xlink" x="0px" y="0px"
	 width="612px" height="792px" viewBox="0 0 612 792" enable-background="new 0 0 612 792" xml:space="preserve">
<g>
	<circle fill="#98E2ED" cx="305.998" cy="395.998" r="305.998"/>
	<g>
		<path fill="#86542A" d="M391.56,466.75c0,0,115.515-55.986,101.063-122.025c-14.454-66.039-100.181-54.146-126.876,36.113
			C339.057,471.097,391.56,466.75,391.56,466.75z"/>
		<g>
			<path fill="#CF7128" d="M218.108,521.349c-5.485-12.307-8.56-25.93-8.56-40.278c0-22.497,7.507-43.233,20.141-59.871
				c-2.967-2.455-5.82-5.048-8.547-7.76c-12.22,10.916-30.344,35.869-37.977,90.716c-6.021,43.266,12.149,53.491,29.295,49.007
				C210.199,541.107,213.809,529.786,218.108,521.349z"/>
			<path fill="#CF7128" d="M405.198,553.245c2.151,0.532,4.315,0.831,6.443,0.871c-2.128-0.063-4.284-0.395-6.424-0.954
				C405.214,553.182,405.206,553.214,405.198,553.245z"/>
			<path fill="#DB853A" d="M218.108,521.349c-4.295,8.438-7.909,19.759-5.647,31.81c1.285,6.842,4.461,14.368,10.486,21.276
				c0,0-50.981-18.667-49.63,16.799h126.017l1.604-10.931C263.883,577.445,232.551,553.777,218.108,521.349z"/>
			<path fill="#DB853A" d="M316.378,580.318l1.6,10.92h0.363l-1.789-10.707C316.492,580.531,316.434,580.311,316.378,580.318z"/>
			<path fill="#DB853A" d="M419.846,569.97c-11.215-0.056-22.588,3.148-24.992,3.862c-0.043,0.055-0.078,0.098-0.122,0.153
				C394.731,573.985,407.338,569.993,419.846,569.97z"/>
			<path fill="#86542A" d="M312.599,580.082c-0.071,0-0.138,0.008-0.209,0.008C312.461,580.09,312.532,580.082,312.599,580.082z"/>
			<path fill="#86542A" d="M308.283,449.367c-0.256,3.941-5.513,11.704-12.015,11.85c-0.504,0.017-0.993,0.067-1.501,0.083
				c-6.652,0.17-12.146-4.918-12.461-11.569c-0.047-1.001-0.035-1.986-0.083-2.987c-19.676-4.265-37.591-13.174-52.562-25.556
				c-12.634,16.642-20.125,37.386-20.125,59.883c0,14.349,3.082,27.964,8.563,40.278c14.443,32.421,45.783,55.644,82.838,58.509
				c2.55,0.192,4.177,0.318,6.778,0.318c0.201,0-0.347-0.008-0.347-0.008V449.367C307.369,449.367,308.3,449.367,308.283,449.367z"
				/>
			<path fill="#DB853A" d="M309.202,449.584c0.016,0,0.031,0,0.047,0v-0.438C309.249,449.293,309.206,449.438,309.202,449.584z"/>
			<path fill="#DB853A" d="M337.961,205.152c1.159,0.284,2.321,0.563,3.473,0.871C340.282,205.704,339.12,205.436,337.961,205.152z"
				/>
			<path fill="#DB853A" d="M402.341,223.63c-0.062,0-0.126-0.008-0.188-0.008c-5.694,0-10.786,2.526-14.266,6.486
				c0.031,0.04,0.07,0.055,0.103,0.083C391.434,226.215,396.675,223.686,402.341,223.63z"/>
			<path fill="#DB853A" d="M282.279,446.759c-0.292-6.159-0.571-12.315-0.863-18.475c-14.21-5.087-24.287-14.053-26.407-24.566
				c-16.665-5.871-28.641-21.713-28.641-40.393c0-23.676,19.195-42.863,42.855-42.863c4.697,0,9.206,0.776,13.434,2.179
				c2.207-10.758,11.905-13.583,24.724-13.583c0.308,0-0.016,0.008-0.016,0.008V201.649c7.882,0.047,19.302,1.115,28.038,3.101
				c-8.905-2.033-17.701-3.117-27.218-3.117c-30.096,0-57.448,10.73-78.921,28.562c-3.48-4.016-8.488-6.573-14.222-6.573
				c-10.479,0-18.912,8.488-18.912,18.967c0,6.549,3.35,12.323,8.39,15.731c-12.559,19.388-19.861,42.477-19.861,67.292
				c0,34.32,13.95,65.376,36.472,87.827c2.731,2.712,5.584,5.305,8.551,7.76C244.657,433.585,262.606,442.495,282.279,446.759z
				 M254.315,286.737c1.698-8.52,9.97-14.045,18.478-12.354c8.516,1.695,14.041,9.966,12.354,18.479
				c-1.698,8.512-9.97,14.044-18.482,12.346C258.149,303.517,252.625,295.241,254.315,286.737z"/>
			<path fill="#DB853A" d="M269.227,406.188c-4.989,0-9.761-0.902-14.214-2.471c2.12,10.514,12.197,19.479,26.407,24.566
				c-0.366-7.865-0.733-15.731-1.095-23.597C276.777,405.637,273.073,406.188,269.227,406.188z"/>
			<path opacity="0.3" fill="#86542A" enable-background="new    " d="M269.227,406.188c-4.989,0-9.761-0.902-14.214-2.471
				c2.12,10.514,12.197,19.479,26.407,24.566c-0.366-7.865-0.733-15.731-1.095-23.597
				C276.777,405.637,273.073,406.188,269.227,406.188z"/>
			<path fill="#FFFFFF" d="M307.369,447.508v-64.9c0-0.591,0.296-1.163,0.02-1.77c-5.221,11.637-15.01,20.496-27.542,23.854
				c0.367,7.865,0.97,15.731,1.332,23.597c0.292,6.16,0.686,12.315,0.978,18.475c0.047,1.001,0.149,2.002,0.197,2.995
				c0.319,6.651,5.955,11.767,12.606,11.605c0.508-0.016,1.245-0.023,1.746-0.04c6.502-0.138,11.287-5.288,11.542-11.739
				c0.004-0.146-0.887-0.291-0.887-0.438C307.369,448.599,307.369,448.051,307.369,447.508z"/>
			<path fill="#86542A" d="M280.32,404.688c12.527-3.357,21.847-12.216,27.068-23.854c0.272,0.607-0.02,1.178-0.02,1.77v-29.595
				c0,0.071,0.276,0.114,0.016,0.114c-4.878,0-25.634-11.692-25.634-26.107c0-1.6,0.402-3.039,0.674-4.378
				c-4.229-1.399-8.623-2.179-13.316-2.179c-23.664,0-42.796,19.188-42.796,42.863c0,18.679,12,34.521,28.669,40.393
				c4.457,1.568,9.241,2.471,14.234,2.471C273.058,406.188,276.777,405.637,280.32,404.688z M245.196,356.185
				c-1.497,0-2.711-1.217-2.711-2.711c0-1.501,1.214-2.711,2.711-2.711c1.498,0,2.711,1.21,2.711,2.711
				C247.908,354.967,246.694,356.185,245.196,356.185z M250.615,383.285c-1.497,0-2.711-1.218-2.711-2.711
				c0-1.501,1.21-2.711,2.711-2.711c1.498,0,2.711,1.21,2.711,2.711C253.326,382.067,252.116,383.285,250.615,383.285z
				 M264.167,345.34c-1.497,0-2.711-1.21-2.711-2.711c0-1.494,1.213-2.711,2.711-2.711s2.711,1.218,2.711,2.711
				C266.878,344.13,265.665,345.34,264.167,345.34z M266.878,364.311c0-1.494,1.214-2.711,2.711-2.711
				c1.497,0,2.711,1.217,2.711,2.711c0,1.501-1.214,2.711-2.711,2.711C268.088,367.022,266.878,365.812,266.878,364.311z"/>
			<path fill="#353A42" d="M307.385,353.127c0.257,0-0.016-0.047-0.016-0.114v-43.947c0,0,0.323-0.008,0.016-0.008
				c-12.819,0-22.99,2.825-25.197,13.583c-0.272,1.34-0.674,2.778-0.674,4.378C281.514,341.438,302.506,353.127,307.385,353.127z"/>
			<path fill="#FFFFFF" d="M266.662,305.208c8.516,1.702,16.784-3.834,18.482-12.346c1.691-8.512-3.838-16.788-12.354-18.479
				c-8.508-1.694-16.78,3.834-18.478,12.354C252.625,295.241,258.149,303.517,266.662,305.208z M259.998,287.86
				c1.064-5.371,6.293-8.867,11.661-7.799c5.383,1.068,8.875,6.297,7.806,11.668c-0.138,0.686-0.343,1.34-0.603,1.962
				c-1.25-1.679-3.212-2.971-6.025-3.531c-5.064-1.001-9.222,1.155-11.791,4.434C259.947,292.617,259.517,290.252,259.998,287.86z"
				/>
			<path fill="#353A42" d="M272.837,290.162c2.81,0.563,4.772,1.856,6.025,3.531c0.26-0.623,0.465-1.276,0.603-1.962
				c1.068-5.371-2.423-10.597-7.806-11.668c-5.368-1.068-10.597,2.424-11.661,7.799c-0.481,2.392-0.051,4.756,1.048,6.735
				C263.615,291.316,267.773,289.161,272.837,290.162z"/>
			<circle fill="#CF7128" cx="264.167" cy="342.629" r="2.711"/>
			<circle fill="#CF7128" cx="245.196" cy="353.473" r="2.711"/>
			<circle fill="#CF7128" cx="269.585" cy="364.311" r="2.711"/>
			<circle fill="#CF7128" cx="250.615" cy="380.574" r="2.711"/>
			<path opacity="0.3" fill="#FFFFFF" enable-background="new    " d="M312.599,580.082c1.285-0.056,2.522-0.123,3.775-0.217
				l-0.004-0.017C315.121,579.951,313.863,580.03,312.599,580.082z"/>
			<path opacity="0.3" fill="#FFFFFF" enable-background="new    " d="M443.991,591.233h0.362
				c0.682-15.763-11.866-20.389-24.512-20.365C432.365,570.923,444.669,575.471,443.991,591.233z"/>
			<path opacity="0.3" fill="#FFFFFF" enable-background="new    " d="M394.365,573.985c0,0,0.181-0.063,0.484-0.153
				c5.919-6.834,9.06-13.832,10.349-20.591c-0.114-0.031-0.232-0.055-0.347-0.083C403.566,560.004,400.395,567.077,394.365,573.985z
				"/>
			<path opacity="0.3" fill="#FFFFFF" enable-background="new    " d="M387.891,230.113c-13.367-11.073-29.182-19.388-46.457-24.09
				c17.252,4.717,32.999,13.064,46.378,24.177C387.835,230.164,387.863,230.148,387.891,230.113z"/>
			<path opacity="0.3" fill="#FFFFFF" enable-background="new    " d="M309.249,580.168c1.119-0.008,2.144-0.039,3.145-0.078
				C311.35,580.137,310.302,580.16,309.249,580.168L309.249,580.168z"/>
			<path opacity="0.3" fill="#FFFFFF" enable-background="new    " d="M336.346,204.75c0.54,0.123,1.072,0.268,1.615,0.398
				C337.422,205.022,336.886,204.869,336.346,204.75z"/>
			<path fill="#CF7128" d="M434.146,504.155c-7.633-54.847-25.756-79.8-37.977-90.716c-2.727,2.712-5.576,5.305-8.548,7.76
				c12.635,16.642,20.142,37.374,20.142,59.871c0,14.349-3.074,27.972-8.556,40.278c4.292,8.438,7.905,19.759,5.644,31.81
				c0.114,0.032,0.232,0.056,0.347,0.083c0.004-0.031,0.012-0.063,0.016-0.083c2.14,0.563,4.3,0.895,6.424,0.954
				C426.376,554.36,439.372,541.707,434.146,504.155z"/>
			<path fill="#DB853A" d="M404.852,553.158c2.262-12.055-1.915-23.376-6.207-31.81c-14.446,32.429-47.931,55.647-83.397,58.505
				v-0.438c0,0,1.596,0,1.655,0l1.435,11.822h125.649c0.675-15.764-11.625-20.765-24.148-20.815
				c-12.508,0.023-25.114,3.791-25.114,3.791c0.043-0.056,0.079-0.217,0.122-0.26c-0.304,0.09-0.484,0.09-0.484,0.09
				C400.395,567.128,403.566,560.004,404.852,553.158z"/>
			<path fill="#86542A" d="M399.208,521.349c5.485-12.307,8.556-25.93,8.556-40.278c0-22.497-7.511-43.233-20.142-59.871
				c-15.085,12.477-33.185,21.434-53.034,25.662c-0.02,0.422-0.039,0.839-0.059,1.261c-0.335,7.081-5.955,12.539-13.063,12.37
				c-6.377-0.153-12.071-4.812-12.97-10.916c-0.062,0-1.127,0.008-1.127,0.008v130.584c0-0.008,3.039-0.031,4.083-0.078
				c0.075,0,0.614-0.008,0.678-0.008c1.261-0.056,2.755-0.131,4.008-0.232C353.192,576.996,384.762,553.777,399.208,521.349z"/>
			<path fill="#DB853A" d="M309.249,449.146v0.438c0.063,0,0.126-0.008,0.189-0.008c-0.103-0.678-0.189-1.363-0.189-2.068
				C309.249,448.051,309.249,448.599,309.249,449.146z"/>
			<path opacity="0.3" fill="#FFFFFF" enable-background="new    " d="M309.249,449.146v0.438c0.063,0,0.126-0.008,0.189-0.008
				c-0.103-0.678-0.189-1.363-0.189-2.068C309.249,448.051,309.249,448.599,309.249,449.146z"/>
			<path fill="#DB853A" d="M307.369,309.065c11.822,0.138,23.53,3.078,25.686,13.576c4.225-1.399,9.202-2.179,13.899-2.179
				c23.672,0,43.096,19.188,43.096,42.863c0,18.671-11.854,34.521-28.522,40.393c-2.108,10.451-12.023,19.373-26.104,24.468
				c-0.3,6.227-0.576,12.453-0.867,18.672c19.85-4.225,37.965-13.186,53.05-25.662c2.968-2.455,5.824-5.048,8.552-7.76
				c22.525-22.45,36.472-53.507,36.472-87.827c0-24.814-7.318-47.903-19.877-67.292c5.044-3.409,8.357-9.182,8.357-15.731
				c0-10.411-8.39-18.856-18.777-18.958c-5.667,0.055-10.908,2.585-14.352,6.565c-0.032-0.031-0.071-0.047-0.103-0.083
				c-0.023,0.04-0.056,0.055-0.079,0.083c-13.379-11.113-29.126-19.455-46.379-24.176c-1.15-0.307-2.312-0.583-3.472-0.871
				c-0.54-0.13-2.014-0.276-2.554-0.398c-8.736-1.986-20.156-3.054-28.038-3.101v107.42H307.369z M344.519,274.383
				c8.508-1.694,16.78,3.834,18.479,12.354c1.69,8.504-3.835,16.78-12.351,18.474c-8.516,1.702-16.783-3.834-18.482-12.346
				C330.478,284.349,336.003,276.078,344.519,274.383z"/>
			<path fill="#DB853A" d="M336.617,404.758c-0.382,7.811-0.752,15.617-1.131,23.428c14.08-5.095,24.051-14.017,26.163-24.468
				c-4.457,1.568-9.233,2.471-14.227,2.471C343.684,406.188,340.077,405.652,336.617,404.758z"/>
			<path opacity="0.3" fill="#86542A" enable-background="new    " d="M336.617,404.758c-0.382,7.811-0.752,15.617-1.131,23.428
				c14.08-5.095,24.051-14.017,26.163-24.468c-4.457,1.568-9.233,2.471-14.227,2.471
				C343.684,406.188,340.077,405.652,336.617,404.758z"/>
			<path fill="#FFFFFF" d="M335.676,404.758c-11.996-3.116-24.365-11.321-28.307-22.15v64.9c0,0.709,1.024,1.395,1.127,2.068
				c0.902,6.104,6.124,10.759,12.5,10.916c7.105,0.169,12.962-5.289,13.293-12.37c0.02-0.422,0.157-0.839,0.181-1.261
				c0.292-6.219,0.189-12.445,0.489-18.672C335.337,420.375,335.298,412.568,335.676,404.758z"/>
			<path opacity="0.3" fill="#FFFFFF" enable-background="new    " d="M335.676,404.758c-11.996-3.116-24.365-11.321-28.307-22.15
				v64.9c0,0.709,1.024,1.395,1.127,2.068c0.902,6.104,6.124,10.759,12.5,10.916c7.105,0.169,12.962-5.289,13.293-12.37
				c0.02-0.422,0.157-0.839,0.181-1.261c0.292-6.219,0.189-12.445,0.489-18.672C335.337,420.375,335.298,412.568,335.676,404.758z"
				/>
			<path fill="#86542A" d="M307.369,353.013v29.595c3.941,10.829,16.311,19.034,28.307,22.15c3.464,0.895,7.539,1.431,11.278,1.431
				c4.993,0,10.002-0.902,14.459-2.471c16.669-5.871,28.755-21.721,28.755-40.393c0-23.676-19.136-42.863-42.8-42.863
				c-4.697,0-9.175,0.776-13.402,2.179c0.275,1.34-0.481,2.778-0.481,4.378C333.48,340.674,311.311,351.874,307.369,353.013z
				 M372.564,356.185c1.498,0,2.712,1.218,2.712,2.711c0,1.501-1.21,2.711-2.712,2.711c-1.497,0-2.711-1.21-2.711-2.711
				C369.857,357.398,371.071,356.185,372.564,356.185z M356.31,380.574c1.497,0,2.711,1.209,2.711,2.711s-1.214,2.711-2.711,2.711
				c-1.498,0-2.711-1.21-2.711-2.711S354.808,380.574,356.31,380.574z M350.887,337.21c1.498,0,2.707,1.218,2.707,2.711
				c0,1.501-1.213,2.711-2.707,2.711c-1.497,0-2.711-1.21-2.711-2.711C348.18,338.428,349.39,337.21,350.887,337.21z
				 M337.339,364.311c0,1.501-1.214,2.711-2.707,2.711c-1.498,0-2.712-1.21-2.712-2.711c0-1.494,1.214-2.711,2.712-2.711
				C336.125,361.604,337.339,362.817,337.339,364.311z"/>
			<path fill="#353A42" d="M333.496,327.02c0-1.6-0.638-3.039-0.914-4.378c-2.155-10.498-13.391-13.438-25.213-13.576v43.947
				C311.311,351.874,333.496,340.674,333.496,327.02z"/>
			<path fill="#FFFFFF" d="M350.646,305.208c8.516-1.695,14.041-9.966,12.351-18.474c-1.698-8.52-9.971-14.045-18.479-12.354
				c-8.516,1.695-14.041,9.966-12.351,18.479C333.867,301.377,342.135,306.91,350.646,305.208z M345.649,280.062
				c5.371-1.068,10.597,2.424,11.661,7.799c0.484,2.392,0.051,4.756-1.049,6.735c-2.569-3.279-6.727-5.435-11.786-4.434
				c-2.813,0.563-4.772,1.856-6.025,3.531c-0.261-0.623-0.465-1.276-0.604-1.962C336.775,286.359,340.271,281.133,345.649,280.062z"
				/>
			<path opacity="0.3" fill="#FFFFFF" enable-background="new    " d="M350.646,305.208c8.516-1.695,14.041-9.966,12.351-18.474
				c-1.698-8.52-9.971-14.045-18.479-12.354c-8.516,1.695-14.041,9.966-12.351,18.479
				C333.867,301.377,342.135,306.91,350.646,305.208z M345.649,280.062c5.371-1.068,10.597,2.424,11.661,7.799
				c0.484,2.392,0.051,4.756-1.049,6.735c-2.569-3.279-6.727-5.435-11.786-4.434c-2.813,0.563-4.772,1.856-6.025,3.531
				c-0.261-0.623-0.465-1.276-0.604-1.962C336.775,286.359,340.271,281.133,345.649,280.062z"/>
			<path fill="#353A42" d="M338.45,293.692c1.253-1.679,3.212-2.971,6.025-3.531c5.06-1.001,9.217,1.155,11.786,4.434
				c1.1-1.979,1.533-4.343,1.049-6.735c-1.064-5.371-6.294-8.867-11.661-7.799c-5.383,1.068-8.878,6.297-7.803,11.668
				C337.985,292.416,338.189,293.07,338.45,293.692z"/>
			<path opacity="0.3" fill="#FFFFFF" enable-background="new    " d="M338.45,293.692c1.253-1.679,3.212-2.971,6.025-3.531
				c5.06-1.001,9.217,1.155,11.786,4.434c1.1-1.979,1.533-4.343,1.049-6.735c-1.064-5.371-6.294-8.867-11.661-7.799
				c-5.383,1.068-8.878,6.297-7.803,11.668C337.985,292.416,338.189,293.07,338.45,293.692z"/>
			<circle fill="#CF7128" cx="350.887" cy="339.921" r="2.711"/>
			<circle opacity="0.3" fill="#FFFFFF" enable-background="new    " cx="350.887" cy="339.921" r="2.711"/>
			<circle fill="#CF7128" cx="372.564" cy="358.892" r="2.711"/>
			<circle opacity="0.3" fill="#FFFFFF" enable-background="new    " cx="372.564" cy="358.892" r="2.711"/>
			<circle fill="#CF7128" cx="334.628" cy="364.311" r="2.711"/>
			<circle opacity="0.3" fill="#FFFFFF" enable-background="new    " cx="334.628" cy="364.311" r="2.711"/>
			<circle fill="#CF7128" cx="356.31" cy="383.285" r="2.711"/>
			<circle opacity="0.3" fill="#FFFFFF" enable-background="new    " cx="356.31" cy="383.285" r="2.711"/>
		</g>
	</g>
</g>
</svg>
